<?xml version="1.0" encoding="UTF-8"?>
<svg id="Layer_1" xmlns="http://www.w3.org/2000/svg" viewBox="0 0 100 100">
  <defs>
    <style>
      .cls-1, .cls-2 {
        fill: #fff;
      }

      .cls-2 {
        stroke-miterlimit: 10;
      }

      .cls-2, .cls-3, .cls-4, .cls-5, .cls-6 {
        stroke: #82358c;
      }

      .cls-2, .cls-4, .cls-5 {
        stroke-width: 1.5px;
      }

      .cls-3, .cls-7, .cls-8, .cls-4 {
        fill: #82358c;
      }

      .cls-3, .cls-4, .cls-5, .cls-6 {
        stroke-linecap: round;
        stroke-linejoin: round;
      }

      .cls-7 {
        font-family: Calibri-Bold, Calibri;
        font-size: 20.94px;
        font-weight: 700;
      }

      .cls-5, .cls-6 {
        fill: none;
      }

      .cls-6 {
        stroke-width: 4px;
      }
    </style>
  </defs>
  <polygon class="cls-4" points="5 95 21.18 95 21.18 92.08 7.92 92.08 7.92 78.82 5 78.82 5 95"/>
  <polygon class="cls-4" points="94.76 5 78.58 5 78.58 7.92 91.84 7.92 91.84 21.18 94.76 21.18 94.76 5"/>
  <polygon class="cls-4" points="4.94 95 21.12 95 21.12 92.08 7.86 92.08 7.86 78.82 4.94 78.82 4.94 95"/>
  <polygon class="cls-4" points="94.7 5 78.52 5 78.52 7.92 91.78 7.92 91.78 21.18 94.7 21.18 94.7 5"/>
  <g>
    <circle class="cls-3" cx="56.04" cy="62.63" r="1.93"/>
    <rect class="cls-3" x="54.11" y="67.29" width="3.63" height="17.25"/>
  </g>
  <g>
    <polygon class="cls-5" points="56.04 36.47 34.72 57.57 34.72 95 77.35 95 77.35 57.57 56.04 36.47"/>
    <rect class="cls-4" x="77.35" y="57.57" width="17.55" height="37.43"/>
    <polygon class="cls-4" points="94.9 57.57 77.35 57.57 56.04 36.47 73.59 36.47 94.9 57.57"/>
  </g>
  <polyline class="cls-6" points="41.48 82.78 41.48 88.37 70.96 88.37 70.96 62.48 56.22 47.89 41.48 62.48 41.48 66.95"/>
  <g>
    <g>
      <path class="cls-8" d="M46.87,60.48c-5.04,0-9.14-4.1-9.14-9.14V13.61c0-1.18.96-2.15,2.15-2.15h2.8c1.18,0,2.15.96,2.15,2.15v37.74c0,1.13.92,2.05,2.05,2.05s2.05-.92,2.05-2.05v-12.56c0-1.18.96-2.15,2.15-2.15h2.8c1.18,0,2.15.96,2.15,2.15v12.56c0,5.04-4.1,9.14-9.14,9.14ZM13.33,60.48c-5.04,0-9.14-4.1-9.14-9.14v-12.58c0-1.18.96-2.15,2.15-2.15h2.8c1.18,0,2.15.96,2.15,2.15v12.58c0,1.13.92,2.04,2.05,2.04,1.13,0,2.04-.92,2.05-2.04v-18.17c0-1.18.96-2.15,2.15-2.15h2.8c1.18,0,2.15.96,2.15,2.15v18.17c0,5.04-4.1,9.14-9.14,9.14ZM28.7,40.92c-1.18,0-2.15-.96-2.15-2.15V5.22c0-1.18.96-2.15,2.15-2.15h2.8c1.18,0,2.15.96,2.15,2.15v33.55c0,1.18-.96,2.15-2.15,2.15h-2.8ZM17.52,29.73c-1.18,0-2.15-.96-2.15-2.15v-8.39c0-1.18.96-2.15,2.15-2.15h2.8c1.18,0,2.15.96,2.15,2.15v8.39c0,1.18-.96,2.15-2.15,2.15h-2.8Z"/>
      <path class="cls-1" d="M31.5,3.82c.77,0,1.4.63,1.4,1.4v33.55c0,.77-.63,1.4-1.4,1.4h-2.8c-.77,0-1.4-.63-1.4-1.4V5.22c0-.77.63-1.4,1.4-1.4h2.8M42.68,12.21c.77,0,1.4.63,1.4,1.4v37.74c0,1.54,1.25,2.8,2.8,2.8s2.8-1.25,2.8-2.8v-12.56c0-.77.63-1.4,1.4-1.4h2.8c.77,0,1.4.63,1.4,1.4v12.56c0,4.63-3.75,8.39-8.39,8.39s-8.39-3.75-8.39-8.39V13.61c0-.77.63-1.4,1.4-1.4h2.8M20.32,17.8c.77,0,1.4.63,1.4,1.4v8.39c0,.77-.63,1.4-1.4,1.4h-2.8c-.77,0-1.4-.63-1.4-1.4v-8.39c0-.77.63-1.4,1.4-1.4h2.8M20.32,31.78c.77,0,1.4.63,1.4,1.4h0s0,18.17,0,18.17c0,4.63-3.75,8.39-8.39,8.39s-8.39-3.75-8.39-8.39v-12.58c0-.77.63-1.4,1.4-1.4h2.8c.77,0,1.4.63,1.4,1.4v12.58c0,1.54,1.25,2.79,2.8,2.79h0c1.54,0,2.79-1.25,2.79-2.79v-18.17c0-.77.63-1.4,1.4-1.4h2.8M31.5,2.32h-2.8c-1.6,0-2.9,1.3-2.9,2.9v33.55c0,1.6,1.3,2.9,2.9,2.9h2.8c1.6,0,2.9-1.3,2.9-2.9V5.22c0-1.6-1.3-2.9-2.9-2.9h0ZM42.68,10.71h-2.8c-1.6,0-2.9,1.3-2.9,2.9v37.74c0,5.45,4.44,9.89,9.89,9.89s9.89-4.44,9.89-9.89v-12.56c0-1.6-1.3-2.9-2.9-2.9h-2.8c-1.6,0-2.9,1.3-2.9,2.9v12.56c0,.71-.58,1.3-1.3,1.3s-1.3-.58-1.3-1.3V13.61c0-1.6-1.3-2.9-2.9-2.9h0ZM20.32,16.3h-2.8c-1.6,0-2.9,1.3-2.9,2.9v8.39c0,1.33.91,2.46,2.13,2.8-1.23.34-2.13,1.46-2.13,2.8v18.17c0,.71-.58,1.29-1.29,1.29-.71,0-1.3-.58-1.3-1.29v-12.58c0-1.6-1.3-2.9-2.9-2.9h-2.8c-1.6,0-2.9,1.3-2.9,2.9v12.58c0,5.45,4.44,9.89,9.89,9.89s9.89-4.44,9.89-9.89v-18.17c0-1.33-.91-2.46-2.13-2.8,1.23-.34,2.13-1.46,2.13-2.8v-8.39c0-1.6-1.3-2.9-2.9-2.9h0Z"/>
    </g>
    <rect class="cls-2" x="5.67" y="12.02" width="48.84" height="19.96" rx="7.16" ry="7.16" transform="translate(60.17 43.99) rotate(-180)"/>
    <text class="cls-7" transform="translate(8.9 28.35) scale(1.25 1)"><tspan x="0" y="0">CFD</tspan></text>
  </g>
</svg>