<?xml version="1.0" encoding="UTF-8"?>
<svg id="Layer_1" xmlns="http://www.w3.org/2000/svg" viewBox="0 0 100 100">
  <defs>
    <style>
      .cls-1 {
        fill: #fff;
      }

      .cls-2, .cls-3, .cls-4, .cls-5 {
        fill: #82358c;
      }

      .cls-2, .cls-4, .cls-6, .cls-7 {
        stroke: #82358c;
        stroke-linecap: round;
        stroke-linejoin: round;
      }

      .cls-4, .cls-5, .cls-6 {
        stroke-width: 1.5px;
      }

      .cls-5 {
        stroke: #fff;
        stroke-miterlimit: 10;
      }

      .cls-6, .cls-7 {
        fill: none;
      }

      .cls-7 {
        stroke-width: 4px;
      }
    </style>
  </defs>
  <g>
    <circle class="cls-2" cx="55.83" cy="62.63" r="1.93"/>
    <rect class="cls-2" x="53.9" y="67.29" width="3.63" height="17.25"/>
  </g>
  <g>
    <polygon class="cls-6" points="55.83 36.47 34.52 57.57 34.52 95 77.15 95 77.15 57.57 55.83 36.47"/>
    <rect class="cls-4" x="77.15" y="57.57" width="17.55" height="37.43"/>
    <polygon class="cls-4" points="94.7 57.57 77.15 57.57 55.83 36.47 73.38 36.47 94.7 57.57"/>
  </g>
  <polygon class="cls-4" points="4.94 95 21.12 95 21.12 92.08 7.86 92.08 7.86 78.82 4.94 78.82 4.94 95"/>
  <polygon class="cls-4" points="94.7 5 78.52 5 78.52 7.92 91.78 7.92 91.78 21.18 94.7 21.18 94.7 5"/>
  <polyline class="cls-7" points="41.27 82.78 41.27 88.37 70.76 88.37 70.76 62.48 56.02 47.89 41.27 62.48 41.27 66.95"/>
  <g>
    <path class="cls-5" d="M30.33,14.56c-8.63,0-15.69,7.07-15.69,15.69s7.06,15.69,15.69,15.69,15.69-7.06,15.69-15.69-7.06-15.69-15.69-15.69"/>
    <g>
      <polygon class="cls-3" points="41.27 14.8 46.48 9.58 51.04 14.14 45.53 19.06 41.27 14.8"/>
      <path class="cls-1" d="M46.48,10.64l3.46,3.46-4.38,3.93-3.23-3.23,4.16-4.16M46.48,8.52l-1.06,1.06-4.16,4.16-1.06,1.06,1.06,1.06,3.23,3.23,1,1,1.06-.95,4.38-3.93,1.18-1.06-1.12-1.12-3.46-3.46-1.06-1.06h0Z"/>
    </g>
    <g>
      <g>
        <rect class="cls-3" x="11.32" y="10.76" width="6.4" height="7.38" transform="translate(-5.97 14.5) rotate(-45)"/>
        <path class="cls-1" d="M14.17,10.64l4.16,4.16-3.46,3.46-4.16-4.16,3.46-3.46M14.17,8.52l-1.06,1.06-3.46,3.46-1.06,1.06,1.06,1.06,4.16,4.16,1.06,1.06,1.06-1.06,3.46-3.46,1.06-1.06-1.06-1.06-4.16-4.16-1.06-1.06h0Z"/>
      </g>
      <g>
        <rect class="cls-3" x="4.19" y="27.2" width="8.42" height="6.11"/>
        <path class="cls-1" d="M11.86,27.95v4.61h-6.92v-4.61h6.92M13.36,26.45H3.44v7.61h9.92v-7.61h0Z"/>
      </g>
      <g>
        <rect class="cls-3" x="27.27" y="4.36" width="6.11" height="8.19"/>
        <path class="cls-1" d="M32.64,5.11v6.69h-4.61v-6.69h4.61M34.14,3.61h-7.61v9.69h7.61V3.61h0Z"/>
      </g>
      <g>
        <rect class="cls-3" x="42.99" y="42.5" width="6.07" height="7.38" transform="translate(-19.18 46.06) rotate(-44.99)"/>
        <path class="cls-1" d="M45.56,42.49l4.16,4.15-3.24,3.23-4.16-4.15,3.23-3.23M45.56,40.37l-1.06,1.06-3.23,3.23-1.06,1.06,1.06,1.06,4.16,4.15,1.06,1.06,1.06-1.06,3.24-3.23,1.06-1.06-1.06-1.06-4.16-4.15-1.06-1.06h0Z"/>
      </g>
      <g>
        <rect class="cls-3" x="48.04" y="27.2" width="8.42" height="6.11"/>
        <path class="cls-1" d="M55.72,27.95v4.61h-6.92v-4.61h6.92M57.22,26.45h-9.92v7.61h9.92v-7.61h0Z"/>
      </g>
      <g>
        <rect class="cls-3" x="27.27" y="47.97" width="6.11" height="8.19"/>
        <path class="cls-1" d="M32.64,48.72v6.69h-4.61v-6.69h4.61M34.14,47.22h-7.61v9.69h7.61v-9.69h0Z"/>
      </g>
      <g>
        <polygon class="cls-3" points="9.62 46.38 15.13 41.46 19.39 45.73 14.17 50.94 9.62 46.38"/>
        <path class="cls-1" d="M15.1,42.49l3.23,3.23-4.16,4.15-3.46-3.46,4.39-3.92M15.16,40.43l-1.06.95-4.39,3.92-1.18,1.06,1.12,1.12,3.46,3.46,1.06,1.06,1.06-1.06,4.16-4.15,1.06-1.06-1.06-1.06-3.23-3.23-1-1h0Z"/>
      </g>
    </g>
  </g>
</svg>