<?xml version="1.0" encoding="UTF-8"?>
<svg id="Layer_1" xmlns="http://www.w3.org/2000/svg" viewBox="0 0 100 100">
  <defs>
    <style>
      .cls-1, .cls-2 {
        fill: #fff;
      }

      .cls-1, .cls-3 {
        stroke: #82358c;
        stroke-linecap: round;
        stroke-linejoin: round;
        stroke-width: 1.5px;
      }

      .cls-4 {
        fill: #82358c;
      }

      .cls-3 {
        fill: none;
      }
    </style>
  </defs>
  <g>
    <rect class="cls-3" x="23.13" y="45.39" width="38.07" height="33.43"/>
    <polygon class="cls-3" points="61.2 45.39 23.13 45.39 42.16 26.55 61.2 45.39"/>
    <rect class="cls-3" x="61.2" y="45.39" width="15.68" height="33.43"/>
    <polygon class="cls-3" points="76.87 45.39 61.2 45.39 42.16 26.55 57.84 26.55 76.87 45.39"/>
    <rect class="cls-1" x="27.07" y="50.21" width="13.59" height="14.7"/>
    <line class="cls-3" x1="27.07" y1="57.56" x2="40.66" y2="57.56"/>
    <line class="cls-3" x1="33.86" y1="50.21" x2="33.86" y2="64.91"/>
    <rect class="cls-1" x="46.19" y="58.35" width="10.32" height="20.47"/>
  </g>
  <g>
    <g>
      <path class="cls-4" d="M47.46,52.89c-.28,0-.55-.04-.82-.12-.58-.17-1.16-.37-1.73-.59-4.95-1.95-8.85-5.72-10.98-10.61-2.49-5.73-2.2-12.1.79-17.54l-3.42-3.79,15.23-3.24-4.8,14.81-2.75-3.06c-1.25,3.38-1.15,7.15.31,10.5,1.68,3.86,4.96,6.75,9,7.93.74.21,1.36.71,1.73,1.39.38.69.47,1.48.25,2.23-.36,1.24-1.51,2.1-2.8,2.1h0Z"/>
      <path class="cls-2" d="M45.41,18l-4,12.34-2.68-2.97c-1.78,3.82-1.86,8.22-.14,12.18,1.77,4.06,5.22,7.1,9.47,8.35,1.15.33,1.81,1.54,1.47,2.69-.28.95-1.14,1.56-2.08,1.56-.2,0-.41-.03-.61-.09-.56-.16-1.12-.36-1.66-.57-4.72-1.86-8.52-5.51-10.57-10.22-2.47-5.68-2.07-12.06,1.02-17.34l-2.91-3.23,12.68-2.7M47.64,15.99l-2.54.54-12.68,2.7-2.54.54,1.74,1.93,2.2,2.44c-2.87,5.54-3.09,11.94-.57,17.73,2.21,5.08,6.25,8.99,11.39,11.01.58.23,1.19.44,1.79.61.34.1.68.15,1.03.15,1.62,0,3.06-1.08,3.52-2.64.28-.94.17-1.94-.31-2.8-.47-.86-1.25-1.48-2.19-1.75-3.82-1.12-6.92-3.86-8.51-7.51-1.21-2.77-1.43-5.85-.68-8.72l1.01,1.12,1.74,1.93.8-2.47,4-12.34.8-2.47h0Z"/>
    </g>
    <g>
      <path class="cls-4" d="M62.68,35.43l2.75,3.06c1.25-3.39,1.15-7.15-.31-10.5-1.68-3.86-4.96-6.75-8.99-7.93-.75-.22-1.37-.72-1.74-1.4-.37-.68-.46-1.47-.24-2.22.36-1.24,1.51-2.1,2.8-2.1.28,0,.55.04.82.12,5.7,1.66,10.33,5.75,12.71,11.2,2.49,5.73,2.2,12.1-.79,17.54l3.42,3.79-15.23,3.24,4.8-14.81Z"/>
      <path class="cls-2" d="M56.95,15.09c.2,0,.41.03.61.09,5.49,1.6,9.95,5.54,12.23,10.78,2.47,5.68,2.07,12.06-1.02,17.34l2.91,3.23-12.68,2.7,4-12.34,2.68,2.97c1.78-3.82,1.86-8.22.14-12.18-1.77-4.06-5.22-7.11-9.47-8.35-1.15-.34-1.81-1.54-1.47-2.69.28-.95,1.14-1.56,2.08-1.56M56.95,13.59c-1.62,0-3.06,1.08-3.52,2.64-.28.94-.17,1.93.3,2.79.47.86,1.25,1.48,2.19,1.76,3.82,1.12,6.93,3.85,8.52,7.51,1.21,2.77,1.43,5.85.68,8.72l-1.01-1.12-1.74-1.93-.8,2.47-4,12.34-.8,2.47,2.54-.54,12.68-2.7,2.54-.54-1.74-1.93-2.2-2.44c2.87-5.54,3.09-11.94.57-17.73-2.46-5.66-7.27-9.9-13.18-11.63-.33-.1-.68-.15-1.03-.15h0Z"/>
    </g>
  </g>
</svg>