<?xml version="1.0" encoding="UTF-8"?>
<svg id="Layer_1" xmlns="http://www.w3.org/2000/svg" viewBox="0 0 100 100">
  <defs>
    <style>
      .cls-1 {
        fill: #fff;
      }

      .cls-2, .cls-3, .cls-4 {
        fill: #82358c;
      }

      .cls-2, .cls-4, .cls-5, .cls-6 {
        stroke: #82358c;
        stroke-linecap: round;
        stroke-linejoin: round;
      }

      .cls-4, .cls-5 {
        stroke-width: 1.5px;
      }

      .cls-5, .cls-6 {
        fill: none;
      }

      .cls-6 {
        stroke-width: 4px;
      }
    </style>
  </defs>
  <polygon class="cls-4" points="5 95 21.18 95 21.18 92.08 7.92 92.08 7.92 78.82 5 78.82 5 95"/>
  <polygon class="cls-4" points="94.76 5 78.58 5 78.58 7.92 91.84 7.92 91.84 21.18 94.76 21.18 94.76 5"/>
  <polygon class="cls-4" points="4.94 95 21.12 95 21.12 92.08 7.86 92.08 7.86 78.82 4.94 78.82 4.94 95"/>
  <polygon class="cls-4" points="94.7 5 78.52 5 78.52 7.92 91.78 7.92 91.78 21.18 94.7 21.18 94.7 5"/>
  <g>
    <polygon class="cls-5" points="56.04 36.47 34.72 57.57 34.72 95 77.35 95 77.35 57.57 56.04 36.47"/>
    <rect class="cls-4" x="77.35" y="57.57" width="17.55" height="37.43"/>
    <polygon class="cls-4" points="94.9 57.57 77.35 57.57 56.04 36.47 73.59 36.47 94.9 57.57"/>
  </g>
  <g>
    <circle class="cls-2" cx="55.86" cy="62.63" r="1.93"/>
    <rect class="cls-2" x="53.92" y="67.29" width="3.63" height="17.25"/>
  </g>
  <polyline class="cls-6" points="41.3 82.78 41.3 88.37 70.78 88.37 70.78 62.48 56.04 47.89 41.3 62.48 41.3 66.95"/>
  <g>
    <rect class="cls-3" x="4.25" y="30.66" width="45.37" height="7.39" rx=".75" ry=".75"/>
    <path class="cls-1" d="M48.87,31.41v5.89H5v-5.89h43.87M48.87,29.91H5c-.83,0-1.5.67-1.5,1.5v5.89c0,.83.67,1.5,1.5,1.5h43.87c.83,0,1.5-.67,1.5-1.5v-5.89c0-.83-.67-1.5-1.5-1.5h0Z"/>
  </g>
  <g>
    <rect class="cls-3" x="4.25" y="21.85" width="45.37" height="7.39" rx=".75" ry=".75"/>
    <path class="cls-1" d="M48.87,22.6v5.89H5v-5.89h43.87M48.87,21.1H5c-.83,0-1.5.67-1.5,1.5v5.89c0,.83.67,1.5,1.5,1.5h43.87c.83,0,1.5-.67,1.5-1.5v-5.89c0-.83-.67-1.5-1.5-1.5h0Z"/>
  </g>
  <g>
    <rect class="cls-3" x="4.25" y="13.05" width="45.37" height="7.39" rx=".75" ry=".75"/>
    <path class="cls-1" d="M48.87,13.8v5.89H5v-5.89h43.87M48.87,12.3H5c-.83,0-1.5.67-1.5,1.5v5.89c0,.83.67,1.5,1.5,1.5h43.87c.83,0,1.5-.67,1.5-1.5v-5.89c0-.83-.67-1.5-1.5-1.5h0Z"/>
  </g>
  <g>
    <rect class="cls-3" x="4.25" y="4.25" width="45.37" height="7.39" rx=".75" ry=".75"/>
    <path class="cls-1" d="M48.87,5v5.89H5v-5.89h43.87M48.87,3.5H5c-.83,0-1.5.67-1.5,1.5v5.89c0,.83.67,1.5,1.5,1.5h43.87c.83,0,1.5-.67,1.5-1.5v-5.89c0-.83-.67-1.5-1.5-1.5h0Z"/>
  </g>
  <g>
    <rect class="cls-3" x="4.25" y="39.46" width="45.37" height="7.39" rx=".75" ry=".75"/>
    <path class="cls-1" d="M48.87,40.21v5.89H5v-5.89h43.87M48.87,38.71H5c-.83,0-1.5.67-1.5,1.5v5.89c0,.83.67,1.5,1.5,1.5h43.87c.83,0,1.5-.67,1.5-1.5v-5.89c0-.83-.67-1.5-1.5-1.5h0Z"/>
  </g>
  <g>
    <rect class="cls-3" x="4.25" y="48.26" width="45.37" height="7.39" rx=".75" ry=".75"/>
    <path class="cls-1" d="M48.87,49.01v5.89H5v-5.89h43.87M48.87,47.51H5c-.83,0-1.5.67-1.5,1.5v5.89c0,.83.67,1.5,1.5,1.5h43.87c.83,0,1.5-.67,1.5-1.5v-5.89c0-.83-.67-1.5-1.5-1.5h0Z"/>
  </g>
  <g>
    <path class="cls-3" d="M8.52,53.96c-.24,0-.47-.05-.69-.13-.96-.39-1.44-1.51-1.07-2.5l6.77-18.22,10.96,5.67,3.35-17.33,7.24-6.96-4.12-1.94,14.62-5.48-6.45,14.77-1.53-4.47-6.31,6.06-4.07,21.1-11.66-6.03-5.29,14.21c-.28.75-.98,1.25-1.76,1.25Z"/>
    <path class="cls-1" d="M44.66,7.94l-5.46,12.51-1.37-3.99-6.99,6.71-3.98,20.6-11.57-5.99-5.48,14.74c-.21.57-.74.92-1.29.92-.17,0-.34-.03-.5-.1-.71-.29-1.07-1.12-.79-1.87l6.58-17.69,11.05,5.72,3.44-17.83,7.65-7.35-3.7-1.75,12.41-4.65M46.52,6.18l-2.21.83-12.41,4.65-2.22.83,2.14,1.01,2.39,1.13-6.6,6.34-.23.22-.06.31-3.19,16.52-9.86-5.1-1-.52-.39,1.06-6.58,17.69c-.46,1.24.14,2.65,1.35,3.14.28.11.57.17.87.17.98,0,1.88-.63,2.23-1.57l5.09-13.68,10.56,5.47,1.19.61.25-1.31,3.92-20.29,5.63-5.41.86,2.51.83,2.43,1.03-2.36,5.46-12.51.95-2.17h0Z"/>
  </g>
</svg>