<?xml version="1.0" encoding="UTF-8"?>
<svg id="Layer_1" xmlns="http://www.w3.org/2000/svg" viewBox="0 0 100 100">
  <defs>
    <style>
      .cls-1, .cls-2 {
        fill: #fff;
      }

      .cls-1, .cls-3 {
        stroke: #82358c;
      }

      .cls-1, .cls-3, .cls-4, .cls-5 {
        stroke-width: 1.5px;
      }

      .cls-1, .cls-3, .cls-5 {
        stroke-linecap: round;
        stroke-linejoin: round;
      }

      .cls-6 {
        font-family: Calibri-BoldItalic, Calibri;
        font-size: 18.12px;
        font-style: italic;
        font-weight: 700;
      }

      .cls-6, .cls-7, .cls-3, .cls-4, .cls-5 {
        fill: #82358c;
      }

      .cls-4 {
        stroke-miterlimit: 10;
      }

      .cls-4, .cls-5 {
        stroke: #fff;
      }
    </style>
  </defs>
  <polygon class="cls-1" points="86.31 36.47 84.84 36.47 81.37 36.47 76.45 36.47 76.45 36.47 72.98 36.47 71.5 36.47 68.06 36.47 66.59 36.47 63.12 36.47 63.12 36.47 58.2 36.47 54.73 36.47 53.25 36.47 44.87 36.47 28.67 95 37.06 95 38.54 95 42.01 95 46.92 95 46.92 95 50.39 95 51.87 95 55.31 95 56.79 95 60.26 95 60.26 95 65.17 95 68.64 95 70.12 95 78.51 95 94.7 36.47 86.31 36.47"/>
  <polygon class="cls-3" points="5 95 21.18 95 21.18 92.08 7.92 92.08 7.92 78.82 5 78.82 5 95"/>
  <polygon class="cls-3" points="94.76 5 78.58 5 78.58 7.92 91.84 7.92 91.84 21.18 94.76 21.18 94.76 5"/>
  <polygon class="cls-3" points="4.94 95 21.12 95 21.12 92.08 7.86 92.08 7.86 78.82 4.94 78.82 4.94 95"/>
  <polygon class="cls-3" points="94.7 5 78.52 5 78.52 7.92 91.78 7.92 91.78 21.18 94.7 21.18 94.7 5"/>
  <polygon class="cls-1" points="82.54 31.18 81.06 31.18 77.59 31.18 72.67 31.18 72.67 31.18 69.2 31.18 67.73 31.18 64.29 31.18 62.81 31.18 59.34 31.18 59.34 31.18 54.42 31.18 50.95 31.18 49.48 31.18 41.09 31.18 24.9 89.71 33.28 89.71 34.76 89.71 38.23 89.71 43.15 89.71 43.15 89.71 46.62 89.71 48.09 89.71 51.53 89.71 53.01 89.71 56.48 89.71 56.48 89.71 61.4 89.71 64.87 89.71 66.34 89.71 74.73 89.71 90.92 31.18 82.54 31.18"/>
  <polygon class="cls-5" points="61.97 32.96 61.28 32.96 59.66 32.96 57.35 32.96 57.35 32.96 55.73 32.96 55.04 32.96 53.43 32.96 52.73 32.96 51.11 32.96 51.11 32.96 48.81 32.96 47.18 32.96 46.49 32.96 42.56 32.96 34.98 60.36 38.91 60.36 39.6 60.36 41.23 60.36 43.53 60.36 43.53 60.36 45.15 60.36 45.84 60.36 47.45 60.36 48.15 60.36 49.77 60.36 49.77 60.36 52.07 60.36 53.7 60.36 54.39 60.36 58.32 60.36 65.9 32.96 61.97 32.96"/>
  <polygon class="cls-5" points="84.9 32.96 84.21 32.96 82.58 32.96 80.28 32.96 80.28 32.96 78.66 32.96 77.97 32.96 76.35 32.96 75.66 32.96 74.04 32.96 74.04 32.96 71.74 32.96 70.11 32.96 69.42 32.96 65.49 32.96 57.91 60.36 61.84 60.36 62.53 60.36 64.15 60.36 66.46 60.36 66.46 60.36 68.08 60.36 68.77 60.36 70.38 60.36 71.07 60.36 72.7 60.36 72.7 60.36 75 60.36 76.63 60.36 77.32 60.36 81.24 60.36 88.83 32.96 84.9 32.96"/>
  <polygon class="cls-5" points="53.94 60.44 53.25 60.44 51.63 60.44 49.33 60.44 49.33 60.44 47.7 60.44 47.01 60.44 45.4 60.44 44.71 60.44 43.08 60.44 43.08 60.44 40.78 60.44 39.16 60.44 38.46 60.44 34.54 60.44 26.95 87.85 30.88 87.85 31.57 87.85 33.2 87.85 35.5 87.85 35.5 87.85 37.12 87.85 37.82 87.85 39.43 87.85 40.12 87.85 41.74 87.85 41.74 87.85 44.05 87.85 45.67 87.85 46.36 87.85 50.29 87.85 57.87 60.44 53.94 60.44"/>
  <polygon class="cls-5" points="76.87 60.44 76.18 60.44 74.56 60.44 72.25 60.44 72.25 60.44 70.63 60.44 69.94 60.44 68.33 60.44 67.64 60.44 66.01 60.44 66.01 60.44 63.71 60.44 62.08 60.44 61.39 60.44 57.47 60.44 49.88 87.85 53.81 87.85 54.5 87.85 56.13 87.85 58.43 87.85 58.43 87.85 60.05 87.85 60.74 87.85 62.35 87.85 63.05 87.85 64.67 87.85 64.67 87.85 66.97 87.85 68.6 87.85 69.29 87.85 73.22 87.85 80.8 60.44 76.87 60.44"/>
  <g>
    <path class="cls-4" d="M30.53,14.46c-8.63,0-15.69,7.07-15.69,15.69s7.06,15.69,15.69,15.69,15.69-7.06,15.69-15.69-7.06-15.69-15.69-15.69"/>
    <g>
      <polygon class="cls-7" points="41.47 14.69 46.69 9.48 51.24 14.03 45.74 18.96 41.47 14.69"/>
      <path class="cls-2" d="M46.69,10.54l3.46,3.46-4.38,3.93-3.23-3.23,4.16-4.16M46.69,8.42l-1.06,1.06-4.16,4.16-1.06,1.06,1.06,1.06,3.23,3.23,1,1,1.06-.95,4.38-3.93,1.18-1.06-1.12-1.12-3.46-3.46-1.06-1.06h0Z"/>
    </g>
    <g>
      <g>
        <rect class="cls-7" x="11.53" y="10.66" width="6.4" height="7.38" transform="translate(-5.83 14.61) rotate(-45)"/>
        <path class="cls-2" d="M14.38,10.54l4.16,4.16-3.46,3.46-4.16-4.16,3.46-3.46M14.38,8.42l-1.06,1.06-3.46,3.46-1.06,1.06,1.06,1.06,4.16,4.16,1.06,1.06,1.06-1.06,3.46-3.46,1.06-1.06-1.06-1.06-4.16-4.16-1.06-1.06h0Z"/>
      </g>
      <g>
        <rect class="cls-7" x="4.4" y="27.1" width="8.42" height="6.11"/>
        <path class="cls-2" d="M12.07,27.85v4.61h-6.92v-4.61h6.92M13.57,26.35H3.64v7.61h9.92v-7.61h0Z"/>
      </g>
      <g>
        <rect class="cls-7" x="27.48" y="4.25" width="6.11" height="8.19"/>
        <path class="cls-2" d="M32.84,5v6.69h-4.61v-6.69h4.61M34.34,3.5h-7.61v9.69h7.61V3.5h0Z"/>
      </g>
      <g>
        <rect class="cls-7" x="43.19" y="42.39" width="6.07" height="7.38" transform="translate(-19.04 46.18) rotate(-45)"/>
        <path class="cls-2" d="M45.77,42.39l4.16,4.15-3.24,3.23-4.16-4.15,3.23-3.23M45.76,40.27l-1.06,1.06-3.23,3.23-1.06,1.06,1.06,1.06,4.16,4.15,1.06,1.06,1.06-1.06,3.24-3.23,1.06-1.06-1.06-1.06-4.16-4.15-1.06-1.06h0Z"/>
      </g>
      <g>
        <rect class="cls-7" x="48.25" y="27.1" width="8.42" height="6.11"/>
        <path class="cls-2" d="M55.92,27.85v4.61h-6.92v-4.61h6.92M57.42,26.35h-9.92v7.61h9.92v-7.61h0Z"/>
      </g>
      <g>
        <rect class="cls-7" x="27.48" y="47.87" width="6.11" height="8.19"/>
        <path class="cls-2" d="M32.84,48.62v6.69h-4.61v-6.69h4.61M34.34,47.12h-7.61v9.69h7.61v-9.69h0Z"/>
      </g>
      <g>
        <polygon class="cls-7" points="9.82 46.28 15.33 41.36 19.59 45.62 14.38 50.83 9.82 46.28"/>
        <path class="cls-2" d="M15.3,42.39l3.23,3.23-4.16,4.15-3.46-3.46,4.39-3.92M15.36,40.32l-1.06.95-4.39,3.92-1.18,1.06,1.12,1.12,3.46,3.46,1.06,1.06,1.06-1.06,4.16-4.15,1.06-1.06-1.06-1.06-3.23-3.23-1-1h0Z"/>
      </g>
    </g>
  </g>
  <g>
    <path class="cls-2" d="M30.53,17.33c-7.02,0-12.77,5.75-12.77,12.77s5.75,12.77,12.77,12.77,12.77-5.75,12.77-12.77-5.75-12.77-12.77-12.77Z"/>
    <text class="cls-6" transform="translate(23.71 35.18) scale(1.25 1)"><tspan x="0" y="0">R</tspan></text>
  </g>
</svg>