<?xml version="1.0" encoding="UTF-8"?>
<svg id="Layer_1" xmlns="http://www.w3.org/2000/svg" viewBox="0 0 100 100">
  <defs>
    <style>
      .cls-1, .cls-2 {
        fill: #fff;
      }

      .cls-1, .cls-3 {
        stroke: #82358c;
        stroke-linecap: round;
        stroke-linejoin: round;
      }

      .cls-1, .cls-3, .cls-4 {
        stroke-width: 1.5px;
      }

      .cls-5, .cls-3, .cls-4 {
        fill: #82358c;
      }

      .cls-4 {
        stroke: #fff;
        stroke-miterlimit: 10;
      }
    </style>
  </defs>
  <polygon class="cls-1" points="86.31 36.47 84.84 36.47 81.37 36.47 76.45 36.47 76.45 36.47 72.98 36.47 71.5 36.47 68.06 36.47 66.59 36.47 63.12 36.47 63.12 36.47 58.2 36.47 54.73 36.47 53.25 36.47 44.87 36.47 28.67 95 37.06 95 38.54 95 42.01 95 46.92 95 46.92 95 50.39 95 51.87 95 55.31 95 56.79 95 60.26 95 60.26 95 65.17 95 68.64 95 70.12 95 78.51 95 94.7 36.47 86.31 36.47"/>
  <polygon class="cls-3" points="4.94 95 21.12 95 21.12 92.08 7.86 92.08 7.86 78.82 4.94 78.82 4.94 95"/>
  <polygon class="cls-3" points="94.7 5 78.52 5 78.52 7.92 91.78 7.92 91.78 21.18 94.7 21.18 94.7 5"/>
  <polygon class="cls-3" points="82.54 31.18 81.06 31.18 77.59 31.18 72.67 31.18 72.67 31.18 69.2 31.18 67.73 31.18 64.29 31.18 62.81 31.18 59.34 31.18 59.34 31.18 54.42 31.18 50.95 31.18 49.48 31.18 41.09 31.18 24.9 89.71 33.28 89.71 34.76 89.71 38.23 89.71 43.15 89.71 43.15 89.71 46.62 89.71 48.09 89.71 51.53 89.71 53.01 89.71 56.48 89.71 56.48 89.71 61.4 89.71 64.87 89.71 66.34 89.71 74.73 89.71 90.92 31.18 82.54 31.18"/>
  <g>
    <path class="cls-4" d="M30.33,14.41c-8.63,0-15.69,7.07-15.69,15.69s7.06,15.69,15.69,15.69,15.69-7.06,15.69-15.69-7.06-15.69-15.69-15.69"/>
    <g>
      <polygon class="cls-5" points="41.27 14.64 46.48 9.43 51.04 13.98 45.53 18.91 41.27 14.64"/>
      <path class="cls-2" d="M46.49,10.49l3.46,3.46-4.38,3.93-3.23-3.23,4.16-4.16M46.49,8.37l-1.06,1.06-4.16,4.16-1.06,1.06,1.06,1.06,3.23,3.23,1,1,1.06-.95,4.38-3.93,1.18-1.06-1.12-1.12-3.46-3.46-1.06-1.06h0Z"/>
    </g>
    <g>
      <g>
        <rect class="cls-5" x="11.32" y="10.61" width="6.4" height="7.38" transform="translate(-5.86 14.46) rotate(-45)"/>
        <path class="cls-2" d="M14.17,10.49l4.16,4.16-3.46,3.46-4.16-4.16,3.46-3.46M14.17,8.37l-1.06,1.06-3.46,3.46-1.06,1.06,1.06,1.06,4.16,4.16,1.06,1.06,1.06-1.06,3.46-3.46,1.06-1.06-1.06-1.06-4.16-4.16-1.06-1.06h0Z"/>
      </g>
      <g>
        <rect class="cls-5" x="4.19" y="27.05" width="8.42" height="6.11"/>
        <path class="cls-2" d="M11.87,27.8v4.61h-6.92v-4.61h6.92M13.37,26.3H3.44v7.61h9.92v-7.61h0Z"/>
      </g>
      <g>
        <rect class="cls-5" x="27.27" y="4.2" width="6.11" height="8.19"/>
        <path class="cls-2" d="M32.64,4.95v6.69h-4.61v-6.69h4.61M34.14,3.45h-7.61v9.69h7.61V3.45h0Z"/>
      </g>
      <g>
        <rect class="cls-5" x="42.99" y="42.34" width="6.07" height="7.38" transform="translate(-19.07 46.01) rotate(-44.99)"/>
        <path class="cls-2" d="M45.56,42.34l4.16,4.15-3.24,3.23-4.16-4.15,3.23-3.23M45.56,40.22l-1.06,1.06-3.23,3.23-1.06,1.06,1.06,1.06,4.16,4.15,1.06,1.06,1.06-1.06,3.24-3.23,1.06-1.06-1.06-1.06-4.16-4.15-1.06-1.06h0Z"/>
      </g>
      <g>
        <rect class="cls-5" x="48.04" y="27.05" width="8.42" height="6.11"/>
        <path class="cls-2" d="M55.72,27.8v4.61h-6.92v-4.61h6.92M57.22,26.3h-9.92v7.61h9.92v-7.61h0Z"/>
      </g>
      <g>
        <rect class="cls-5" x="27.27" y="47.82" width="6.11" height="8.19"/>
        <path class="cls-2" d="M32.64,48.57v6.69h-4.61v-6.69h4.61M34.14,47.07h-7.61v9.69h7.61v-9.69h0Z"/>
      </g>
      <g>
        <polygon class="cls-5" points="9.62 46.23 15.13 41.31 19.39 45.57 14.17 50.78 9.62 46.23"/>
        <path class="cls-2" d="M15.1,42.34l3.23,3.23-4.16,4.15-3.46-3.46,4.39-3.92M15.16,40.27l-1.06.95-4.39,3.92-1.18,1.06,1.12,1.12,3.46,3.46,1.06,1.06,1.06-1.06,4.16-4.15,1.06-1.06-1.06-1.06-3.23-3.23-1-1h0Z"/>
      </g>
    </g>
  </g>
  <g>
    <path class="cls-2" d="M30.33,17.33c-7.02,0-12.77,5.75-12.77,12.77s5.75,12.77,12.77,12.77,12.77-5.75,12.77-12.77-5.75-12.77-12.77-12.77Z"/>
    <path class="cls-5" d="M37.48,37.48c-.47.56-1.29.62-1.85.18l-6.09-5.12s-.06-.09-.09-.12c0,0,0-.03-.03-.03-.12-.12-.21-.24-.24-.38-.03-.06-.03-.12-.06-.21s-.06-.18-.06-.26c0-.03-.03-.06-.03-.09v-7.94c0-.74.59-1.32,1.32-1.32s1.32.59,1.32,1.32v7.35l5.62,4.71c.56.53.65,1.35.18,1.91h0Z"/>
  </g>
</svg>