<?xml version="1.0" encoding="UTF-8"?>
<svg id="Layer_1" xmlns="http://www.w3.org/2000/svg" viewBox="0 0 100 100">
  <defs>
    <style>
      .cls-1, .cls-2 {
        fill: #fff;
      }

      .cls-1, .cls-3, .cls-4 {
        stroke: #82358c;
      }

      .cls-1, .cls-3, .cls-4, .cls-5 {
        stroke-linecap: round;
        stroke-linejoin: round;
        stroke-width: 1.5px;
      }

      .cls-3, .cls-5 {
        fill: #82358c;
      }

      .cls-4 {
        fill: none;
      }

      .cls-5 {
        stroke: #fff;
      }
    </style>
  </defs>
  <g>
    <rect class="cls-3" x="23.13" y="45.39" width="38.07" height="33.43"/>
    <polygon class="cls-4" points="61.2 45.39 23.13 45.39 42.16 26.55 61.2 45.39"/>
    <rect class="cls-4" x="61.2" y="45.39" width="15.68" height="33.43"/>
    <polygon class="cls-4" points="76.87 45.39 61.2 45.39 42.16 26.55 57.84 26.55 76.87 45.39"/>
    <rect class="cls-1" x="27.07" y="50.21" width="13.59" height="14.7"/>
    <line class="cls-4" x1="27.07" y1="57.56" x2="40.66" y2="57.56"/>
    <line class="cls-4" x1="33.86" y1="50.21" x2="33.86" y2="64.91"/>
    <rect class="cls-1" x="46.19" y="58.35" width="10.32" height="20.47"/>
  </g>
  <g>
    <path class="cls-5" d="M50,24.32c-3.77,0-6.83,3.06-6.83,6.83s3.06,6.84,6.83,6.84,6.83-3.06,6.83-6.84-3.06-6.83-6.83-6.83ZM50,24.32c-3.77,0-6.83,3.06-6.83,6.83s3.06,6.84,6.83,6.84,6.83-3.06,6.83-6.84-3.06-6.83-6.83-6.83ZM72.34,29.64c-6.54-10.3-13.99-15.57-22.34-15.57s-15.8,5.27-22.34,15.57c-.59.92-.59,2.1,0,3.03,6.54,10.3,13.99,15.57,22.34,15.57s15.8-5.27,22.34-15.57c.59-.93.59-2.11,0-3.03ZM50,41.4c-5.66,0-10.25-4.58-10.25-10.25s4.59-10.25,10.25-10.25,10.25,4.59,10.25,10.25-4.59,10.25-10.25,10.25ZM50,24.32c-3.77,0-6.83,3.06-6.83,6.83s3.06,6.84,6.83,6.84,6.83-3.06,6.83-6.84-3.06-6.83-6.83-6.83Z"/>
    <path class="cls-2" d="M50,20.9c-5.66,0-10.25,4.59-10.25,10.25s4.59,10.25,10.25,10.25,10.25-4.58,10.25-10.25-4.59-10.25-10.25-10.25ZM50,37.99c-3.77,0-6.83-3.06-6.83-6.84s3.06-6.83,6.83-6.83,6.83,3.06,6.83,6.83-3.06,6.84-6.83,6.84Z"/>
  </g>
</svg>