<?xml version="1.0" encoding="UTF-8"?>
<svg id="Layer_1" xmlns="http://www.w3.org/2000/svg" viewBox="0 0 100 100">
  <defs>
    <style>
      .cls-1 {
        fill: #82358c;
      }

      .cls-1, .cls-2 {
        stroke-linecap: round;
        stroke-linejoin: round;
        stroke-width: 1.5px;
      }

      .cls-1, .cls-3 {
        stroke: #82358c;
      }

      .cls-2 {
        fill: none;
        stroke: #fff;
      }

      .cls-3 {
        fill: #fff;
        stroke-miterlimit: 10;
      }
    </style>
  </defs>
  <rect class="cls-1" x="11.59" y="11.59" width="76.82" height="76.82"/>
  <polygon class="cls-1" points="5 95 21.18 95 21.18 92.08 7.92 92.08 7.92 78.82 5 78.82 5 95"/>
  <polygon class="cls-1" points="94.76 5 78.58 5 78.58 7.92 91.84 7.92 91.84 21.18 94.76 21.18 94.76 5"/>
  <polygon class="cls-1" points="4.94 95 21.12 95 21.12 92.08 7.86 92.08 7.86 78.82 4.94 78.82 4.94 95"/>
  <polygon class="cls-1" points="94.7 5 78.52 5 78.52 7.92 91.78 7.92 91.78 21.18 94.7 21.18 94.7 5"/>
  <polygon class="cls-1" points="5.14 5 5.14 21.18 8.07 21.18 8.07 7.92 21.33 7.92 21.33 5 5.14 5"/>
  <polygon class="cls-1" points="95.14 94.76 95.14 78.58 92.22 78.58 92.22 91.84 78.96 91.84 78.96 94.76 95.14 94.76"/>
  <line class="cls-2" x1="5.14" y1="32.97" x2="93.04" y2="32.97"/>
  <line class="cls-2" x1="23.12" y1="32.97" x2="23.12" y2="90.15"/>
  <line class="cls-2" x1="23.12" y1="71.51" x2="90.74" y2="71.51"/>
  <line class="cls-2" x1="73.51" y1="5" x2="73.51" y2="71.51"/>
  <line class="cls-2" x1="43.75" y1="29.77" x2="43.75" y2="93.35"/>
  <g>
    <path class="cls-3" d="M50,66.41c-.63,0-1.23-.27-1.65-.75-.15-.17-3.71-4.22-7.32-9.32-5.1-7.2-7.58-12.55-7.58-16.35,0-9.14,7.41-16.54,16.55-16.54,9.13,0,16.54,7.41,16.54,16.54,0,3.81-2.48,9.15-7.58,16.35-3.61,5.1-7.17,9.15-7.32,9.32-.42.47-1.02.74-1.65.74h0Z"/>
    <path class="cls-1" d="M50,32.97c-3.45,0-6.25,2.8-6.25,6.25s2.8,6.24,6.25,6.24,6.24-2.79,6.25-6.24c0-3.45-2.8-6.25-6.25-6.25Z"/>
  </g>
  <line class="cls-2" x1="73.51" y1="49.17" x2="40.7" y2="49.17"/>
  <line class="cls-2" x1="23.12" y1="55.04" x2="7.38" y2="55.04"/>
</svg>