<?xml version="1.0" encoding="UTF-8"?>
<svg id="Layer_1" xmlns="http://www.w3.org/2000/svg" viewBox="0 0 100 100">
  <defs>
    <style>
      .cls-1 {
        fill: #fff;
      }

      .cls-2, .cls-3, .cls-4 {
        fill: #82358c;
      }

      .cls-2, .cls-4, .cls-5, .cls-6 {
        stroke: #82358c;
        stroke-linecap: round;
        stroke-linejoin: round;
      }

      .cls-4, .cls-5 {
        stroke-width: 1.5px;
      }

      .cls-5, .cls-6 {
        fill: none;
      }

      .cls-6 {
        stroke-width: 4px;
      }
    </style>
  </defs>
  <polygon class="cls-4" points="5 95 21.18 95 21.18 92.08 7.92 92.08 7.92 78.82 5 78.82 5 95"/>
  <polygon class="cls-4" points="94.76 5 78.58 5 78.58 7.92 91.84 7.92 91.84 21.18 94.76 21.18 94.76 5"/>
  <polygon class="cls-4" points="4.94 95 21.12 95 21.12 92.08 7.86 92.08 7.86 78.82 4.94 78.82 4.94 95"/>
  <polygon class="cls-4" points="94.7 5 78.52 5 78.52 7.92 91.78 7.92 91.78 21.18 94.7 21.18 94.7 5"/>
  <g>
    <circle class="cls-2" cx="56.04" cy="62.63" r="1.93"/>
    <rect class="cls-2" x="54.11" y="67.29" width="3.63" height="17.25"/>
  </g>
  <g>
    <polygon class="cls-5" points="56.04 36.47 34.72 57.57 34.72 95 77.35 95 77.35 57.57 56.04 36.47"/>
    <rect class="cls-4" x="77.35" y="57.57" width="17.55" height="37.43"/>
    <polygon class="cls-4" points="94.9 57.57 77.35 57.57 56.04 36.47 73.59 36.47 94.9 57.57"/>
  </g>
  <polyline class="cls-6" points="41.48 82.78 41.48 88.37 70.96 88.37 70.96 62.48 56.22 47.89 41.48 62.48 41.48 66.95"/>
  <g>
    <path class="cls-3" d="M46.25,60.75c-4.96,0-9-4.04-9-9V14.62c0-1.17.95-2.12,2.12-2.12h2.75c1.17,0,2.12.95,2.12,2.12v37.12c0,1.1.9,2,2,2s2-.9,2-2v-12.36c0-1.17.95-2.12,2.12-2.12h2.75c1.17,0,2.12.95,2.12,2.12v12.36c0,4.96-4.04,9-9,9ZM13.25,60.75c-4.96,0-9-4.04-9-9v-12.37c0-1.17.95-2.12,2.12-2.12h2.75c1.17,0,2.12.95,2.12,2.12v12.37c0,1.1.9,2,2,2,1.1,0,2-.9,2-2v-17.87c0-1.17.95-2.12,2.12-2.12h2.75c1.17,0,2.12.95,2.12,2.12v17.88c0,4.96-4.04,9-9,9ZM28.38,41.5c-1.17,0-2.12-.95-2.12-2.12V6.38c0-1.17.95-2.12,2.12-2.12h2.75c1.17,0,2.12.95,2.12,2.12v33c0,1.17-.95,2.12-2.12,2.12h-2.75ZM17.38,30.5c-1.17,0-2.12-.95-2.12-2.12v-8.25c0-1.17.95-2.12,2.12-2.12h2.75c1.17,0,2.12.95,2.12,2.12v8.25c0,1.17-.95,2.12-2.12,2.12h-2.75Z"/>
    <path class="cls-1" d="M31.12,5c.76,0,1.38.62,1.38,1.38v33c0,.76-.62,1.38-1.38,1.38h-2.75c-.76,0-1.38-.62-1.38-1.38V6.38c0-.76.62-1.38,1.38-1.38h2.75M42.12,13.25c.76,0,1.38.62,1.38,1.38v37.12c0,1.52,1.23,2.75,2.75,2.75s2.75-1.23,2.75-2.75v-12.36c0-.76.62-1.38,1.38-1.38h2.75c.76,0,1.38.62,1.38,1.38v12.36c0,4.56-3.69,8.25-8.25,8.25s-8.25-3.69-8.25-8.25V14.62c0-.76.62-1.38,1.38-1.38h2.75M20.12,18.75c.76,0,1.38.62,1.38,1.38v8.25c0,.76-.62,1.38-1.38,1.38h-2.75c-.76,0-1.38-.62-1.38-1.38v-8.25c0-.76.62-1.38,1.38-1.38h2.75M20.12,32.5c.76,0,1.37.62,1.37,1.38h0v17.88c0,4.56-3.69,8.25-8.25,8.25s-8.25-3.69-8.25-8.25v-12.37c0-.76.62-1.38,1.38-1.38h2.75c.76,0,1.38.62,1.38,1.38v12.37c0,1.52,1.23,2.75,2.75,2.75h0c1.52,0,2.75-1.23,2.75-2.75v-17.88c0-.76.62-1.38,1.37-1.38h2.75M31.12,3.5h-2.75c-1.59,0-2.88,1.29-2.88,2.88v33c0,1.59,1.29,2.88,2.88,2.88h2.75c1.59,0,2.88-1.29,2.88-2.88V6.38c0-1.59-1.29-2.88-2.88-2.88h0ZM42.12,11.75h-2.75c-1.59,0-2.88,1.29-2.88,2.88v37.12c0,5.38,4.37,9.75,9.75,9.75s9.75-4.37,9.75-9.75v-12.36c0-1.59-1.29-2.88-2.88-2.88h-2.75c-1.59,0-2.88,1.29-2.88,2.88v12.36c0,.69-.56,1.25-1.25,1.25s-1.25-.56-1.25-1.25V14.62c0-1.59-1.29-2.88-2.88-2.88h0ZM20.12,17.25h-2.75c-1.59,0-2.88,1.29-2.88,2.88v8.25c0,1.29.86,2.39,2.04,2.75-1.18.36-2.04,1.46-2.04,2.75v17.88c0,.69-.56,1.25-1.25,1.25-.69,0-1.25-.56-1.25-1.25v-12.37c0-1.59-1.29-2.88-2.88-2.88h-2.75c-1.59,0-2.88,1.29-2.88,2.88v12.37c0,5.38,4.37,9.75,9.75,9.75s9.75-4.37,9.75-9.75v-17.88c0-1.29-.86-2.39-2.04-2.75,1.18-.36,2.04-1.46,2.04-2.75v-8.25c0-1.59-1.29-2.88-2.88-2.88h0Z"/>
  </g>
</svg>